<svg width="107" height="22" viewBox="0 0 107 22" fill="none" xmlns="http://www.w3.org/2000/svg">
<path d="M12.8476 3.35852L12.1312 21.8951L9.29546 21.8055L10.0715 3.26897L0.459991 2.94063L0.57939 0.104919L22.7278 0.910858L22.6681 3.68687L12.8476 3.35852Z" fill="#EEB815"/>
<path d="M24.1827 20.134L22.8693 18.6116L23.5857 8.37325L24.9289 7.08972L34.839 6.67182L36.3016 8.0449L36.6001 19.328L35.1076 20.7608L24.1827 20.134ZM33.7644 17.8654L33.5555 9.53738L26.302 9.83587L25.7946 17.4177L33.7644 17.8654Z" fill="#EEB815"/>
<path d="M41.4978 20.134L40.1844 18.6116L40.9008 8.37325L42.244 7.08972L52.1541 6.67182L53.6167 8.0449L53.9152 19.328L52.4227 20.7608L41.4978 20.134ZM51.0795 17.8654L50.8705 9.53738L43.6171 9.83587L43.1096 17.4177L51.0795 17.8654Z" fill="#EEB815"/>
<path d="M57.201 19.8952L58.574 9.59708L60.1859 8.4031L68.9617 9.80602L68.4841 3.11972L71.3198 2.94063L72.3645 18.6415L71.1109 20.134L58.7233 21.4772L57.201 19.8952ZM60.2158 18.4922L69.4691 17.5072L69.1408 12.6716L61.171 11.3881L60.2158 18.4922Z" fill="#EEB815"/>
<path d="M76.9733 20.134L75.6599 18.6116L76.3763 8.37325L77.7195 7.08972L87.6296 6.67182L89.0922 8.0449L89.3907 19.328L87.8982 20.7608L76.9733 20.134ZM86.555 17.8654L86.346 9.53738L79.0926 9.83587L78.5851 17.4177L86.555 17.8654Z" fill="#EEB815"/>
<path d="M94.2883 20.134L92.975 18.6116L93.6913 8.37325L95.0346 7.08972L104.945 6.67182L106.407 8.0449L106.706 19.328L105.213 20.7608L94.2883 20.134ZM103.87 17.8654L103.661 9.53738L96.4076 9.83587L95.9002 17.4177L103.87 17.8654Z" fill="#EEB815"/>
</svg>
