<svg width="20" height="21" viewBox="0 0 20 21" fill="none" xmlns="http://www.w3.org/2000/svg">
<path d="M16.8791 4.64301L3.31554 4.64301" stroke="#EB5757" stroke-width="1.23305" stroke-linecap="round" stroke-linejoin="round"/>
<path d="M8.24804 8.34216V13.2744" stroke="#EB5757" stroke-width="1.23305" stroke-linecap="round" stroke-linejoin="round"/>
<path d="M11.9472 8.34216V13.2744" stroke="#EB5757" stroke-width="1.23305" stroke-linecap="round" stroke-linejoin="round"/>
<path d="M15.646 4.64301V16.357C15.646 16.5205 15.5811 16.6773 15.4655 16.7929C15.3499 16.9086 15.193 16.9735 15.0295 16.9735H5.16511C5.0016 16.9735 4.84479 16.9086 4.72916 16.7929C4.61354 16.6773 4.54859 16.5205 4.54859 16.357V4.64301" stroke="#EB5757" stroke-width="1.23305" stroke-linecap="round" stroke-linejoin="round"/>
<path d="M13.1802 4.64304V3.40999C13.1802 3.08297 13.0503 2.76934 12.8191 2.53809C12.5879 2.30685 12.2742 2.17694 11.9472 2.17694H8.24804C7.92102 2.17694 7.60739 2.30685 7.37614 2.53809C7.1449 2.76934 7.01499 3.08297 7.01499 3.40999V4.64304" stroke="#EB5757" stroke-width="1.23305" stroke-linecap="round" stroke-linejoin="round"/>
</svg>
